# File created by Blade
# Date/Time:  Wed Apr 08 17:31:45 2015
#---------------------------------------------------------
:version 1.10
:name HOM
:units
  mass 1.0
  length 1.000000
  angle deg
:documentation
     Acclaim Skeleton File
:root
   axis xyz
   order TX TY TZ RX RY RZ
   position 0.000000 0.000000 0.000000
   orientation 0 0 0
:bonedata
   begin
      id 1
      name Spine_dum
      direction 0.000000 1.000000 0.000000
      length 5.893853
      axis 0.0 0.0 0.0 xyz
   end
   begin
      id 2
      name LeftUpLeg_dum
      direction 1.000000 0.000000 0.000000
      length 3.697939
      axis 0.0 0.0 0.0 xyz
   end
   begin
      id 3
      name RightUpLeg_dum
      direction -1.000000 0.000000 0.000000
      length 3.697939
      axis 0.0 0.0 0.0 xyz
   end
   begin
      id 4
      name Spine
      direction 0.000000 1.000000 0.000000
      length 0.000000
      axis 0.0 0.0 0.0 xyz
      dof rx ry rz
   end
   begin
      id 5
      name Spine_dum1
      direction 0.000000 1.000000 0.000000
      length 16.447146
      axis 0.0 0.0 0.0 xyz
   end
   begin
      id 6
      name Spine_dum2
      direction 0.000000 1.000000 0.000000
      length 10.900383
      axis 0.0 0.0 0.0 xyz
   end
   begin
      id 7
      name Spine_dum3
      direction 0.000000 1.000000 0.000000
      length 10.900383
      axis 0.0 0.0 0.0 xyz
   end
   begin
      id 8
      name Head
      direction 0.000000 1.000000 0.000000
      length 4.527550
      axis 0.0 0.0 0.0 xyz
      dof rx ry rz
   end
   begin
      id 9
      name LeftShoulder
      direction 1.000000 0.000000 0.000000
      length 8.219464
      axis 0.0 0.0 -90.0 xyz
      dof rx ry rz
   end
   begin
      id 10
      name LeftArm
      direction 1.000000 0.000000 0.000000
      length 11.094937
      axis 0.0 0.0 -90.0 xyz
      dof rx ry rz
   end
   begin
      id 11
      name LeftForeArm
      direction 1.000000 0.000000 0.000000
      length 9.103875
      axis 0.0 0.0 -90.0 xyz
      dof ry rz rx
   end
   begin
      id 12
      name LeftHand
      direction 0.000000 0.000000 0.000000
      length 0.000000
      axis 0.0 0.0 -90.0 xyz
      dof rx ry rz
   end
   begin
      id 13
      name LeftHand_dum1
      direction 0.000000 0.000000 0.000000
      length 0.000000
      axis 0.0 0.0 -90.0 xyz
   end
   begin
      id 14
      name LeftHand_dum2
      direction 1.000000 0.000000 0.000000
      length 3.937000
      axis 0.0 0.0 -90.0 xyz
   end
   begin
      id 15
      name LeftHandThumb1
      direction 0.000000 0.000000 1.000000
      length 3.937000
      axis 0.0 0.0 -90.0 xyz
      dof rx rz ry
   end
   begin
      id 16
      name RightShoulder
      direction -1.000000 0.000000 0.000000
      length 8.219464
      axis 0.0 0.0 90.0 xyz
      dof rx ry rz
   end
   begin
      id 17
      name RightArm
      direction -1.000000 0.000000 0.000000
      length 11.094937
      axis 0.0 0.0 90.0 xyz
      dof rx ry rz
   end
   begin
      id 18
      name RightForeArm
      direction -1.000000 0.000000 0.000000
      length 9.103875
      axis 0.0 0.0 90.0 xyz
      dof ry rz rx
   end
   begin
      id 19
      name RightHand
      direction 0.000000 0.000000 0.000000
      length 0.000000
      axis 0.0 0.0 90.0 xyz
      dof rx ry rz
   end
   begin
      id 20
      name RightHand_dum1
      direction 0.000000 0.000000 0.000000
      length 0.000000
      axis 0.0 0.0 90.0 xyz
   end
   begin
      id 21
      name RightHand_dum2
      direction -1.000000 0.000000 0.000000
      length 3.937000
      axis 0.0 0.0 90.0 xyz
   end
   begin
      id 22
      name RightHandThumb1
      direction 0.000000 0.000000 1.000000
      length 3.937000
      axis 0.0 0.0 90.0 xyz
      dof rx rz ry
   end
   begin
      id 23
      name LeftUpLeg
      direction 0.000000 -1.000000 0.000000
      length 16.181467
      axis 0.0 0.0 0.0 xyz
      dof rx ry rz
   end
   begin
      id 24
      name LeftLeg
      direction 0.000000 -1.000000 0.000000
      length 16.501392
      axis 0.0 0.0 0.0 xyz
      dof rx ry rz
   end
   begin
      id 25
      name LeftFoot
      direction 0.000000 -0.258819 0.965926
      length 6.408245
      axis 15.0 0.0 0.0 xyz
      dof rx ry rz
   end
   begin
      id 26
      name LeftToeBase
      direction 0.000000 0.000000 1.000000
      length 2.952750
      axis 0.0 0.0 0.0 xyz
      dof rx ry rz
   end
   begin
      id 27
      name RightUpLeg
      direction 0.000000 -1.000000 0.000000
      length 16.181467
      axis 0.0 0.0 0.0 xyz
      dof rx ry rz
   end
   begin
      id 28
      name RightLeg
      direction 0.000000 -1.000000 0.000000
      length 16.501392
      axis 0.0 0.0 0.0 xyz
      dof rx ry rz
   end
   begin
      id 29
      name RightFoot
      direction 0.000000 -0.258819 0.965926
      length 6.408245
      axis 15.0 0.0 0.0 xyz
      dof rx ry rz
   end
   begin
      id 30
      name RightToeBase
      direction 0.000000 0.000000 1.000000
      length 2.952750
      axis 0.0 0.0 0.0 xyz
      dof rx ry rz
   end
:hierarchy
   begin
      root Spine_dum LeftUpLeg_dum RightUpLeg_dum
      Spine_dum Spine
      LeftUpLeg_dum LeftUpLeg
      RightUpLeg_dum RightUpLeg
      Spine Spine_dum1 Spine_dum2 Spine_dum3
      Spine_dum1 Head
      Spine_dum2 LeftShoulder
      Spine_dum3 RightShoulder
      LeftShoulder LeftArm
      LeftArm LeftForeArm
      LeftForeArm LeftHand
      LeftHand LeftHand_dum1 LeftHand_dum2
      LeftHand_dum1 LeftHandThumb1
      RightShoulder RightArm
      RightArm RightForeArm
      RightForeArm RightHand
      RightHand RightHand_dum1 RightHand_dum2
      RightHand_dum1 RightHandThumb1
      LeftUpLeg LeftLeg
      LeftLeg LeftFoot
      LeftFoot LeftToeBase
      RightUpLeg RightLeg
      RightLeg RightFoot
      RightFoot RightToeBase
   end

# File created by Blade
# Date/Time:  Wed Apr 08 17:31:39 2015
# Frame Rate: 120.000 fps
#------------------------------------------------------
:FULLY-SPECIFIED
:DEGREES
442
root 10.758926 21.260274 -0.946045 -582.306234 -88.662207 382.192242
Spine 238.970293 0.071975 -0.938118
Head 23.063903 12.214543 4.270458
LeftShoulder 14.914358 -5.355522 40.629212
LeftArm 54.608524 -13.080651 -27.884162
LeftForeArm 32.514335 -0.000000 23.231602
LeftHand -5.170899 -0.000000 -4.411106
LeftHandThumb1 -26.253704 0.000000 33.147579
RightShoulder 8.163851 -22.264827 -46.984839
RightArm 79.113714 28.933760 37.177865
RightForeArm -11.085895 -0.000000 23.662017
RightHand 4.830633 0.000000 5.158476
RightHandThumb1 -24.326973 -0.000000 -32.862282
LeftUpLeg 124.491947 -10.840467 -9.185033
LeftLeg 107.589319 -0.000000 -0.000000
LeftFoot -33.347087 9.407349 -6.375848
LeftToeBase 3.410368 -0.000000 -0.000000
RightUpLeg 127.394133 15.615453 9.928859
RightLeg 109.272740 -0.000000 -0.000000
RightFoot -40.511031 -1.615752 3.769068
RightToeBase 6.576546 -0.000000 -0.000000
443
root 10.695149 21.317733 -0.948921 -583.744996 -88.596238 383.874744
Spine 238.936720 0.093701 -0.915537
Head 22.938307 12.082991 4.128598
LeftShoulder 14.893220 -5.232526 40.580158
LeftArm 54.494700 -13.166556 -27.696020
LeftForeArm 32.493782 -0.000000 23.301810
LeftHand -5.072621 -0.000000 -4.434304
LeftHandThumb1 -26.253704 0.000000 33.147579
RightShoulder 8.148175 -22.410525 -46.974978
RightArm 78.825800 29.077585 36.955519
RightForeArm -10.887098 -0.000000 23.805757
RightHand 4.924129 -0.000000 4.792099
RightHandThumb1 -24.326973 -0.000000 -32.862282
LeftUpLeg 124.546295 -10.838722 -9.101812
LeftLeg 107.437122 -0.000000 -0.000000
LeftFoot -33.407398 9.377598 -6.442568
LeftToeBase 3.333456 -0.000000 -0.000000
RightUpLeg 127.460214 15.725782 9.994210
RightLeg 109.149995 -0.000000 -0.000000
RightFoot -40.617225 -1.456781 3.870386
RightToeBase 6.467029 -0.000000 -0.000000
444
root 10.632400 21.373899 -0.964020 -586.448087 -88.537413 386.805495
Spine 238.925908 0.057303 -0.858450
Head 22.785902 12.010006 4.001191
LeftShoulder 14.848804 -5.280911 40.592368
LeftArm 54.274221 -13.143871 -27.752505
LeftForeArm 32.968818 0.000000 23.420636
LeftHand -5.083155 0.000000 -4.365290
LeftHandThumb1 -26.253704 0.000000 33.147579
RightShoulder 8.145330 -22.507265 -46.958981
RightArm 78.533922 29.220023 36.846134
RightForeArm -10.770711 0.000000 24.006626
RightHand 4.991937 -0.000000 4.612267
RightHandThumb1 -24.326973 -0.000000 -32.862282
LeftUpLeg 124.632172 -10.894214 -9.039431
LeftLeg 107.271378 -0.000000 -0.000000
LeftFoot -33.488285 9.319043 -6.486428
LeftToeBase 3.377847 -0.000000 -0.000000
RightUpLeg 127.516801 15.742251 10.042998
RightLeg 109.045581 -0.000000 -0.000000
RightFoot -40.741807 -1.324402 4.033776
RightToeBase 6.454888 -0.000000 -0.000000
445
root 10.569639 21.437026 -0.973917 -586.157729 -88.475478 386.762272
Spine 238.907019 0.058638 -0.868846
Head 22.628886 11.926396 3.866177
LeftShoulder 14.802924 -5.146339 40.562037
LeftArm 54.157317 -13.251179 -27.571782
LeftForeArm 32.993086 0.000000 23.493642
LeftHand -5.168184 -0.000000 -4.382891
LeftHandThumb1 -26.253704 0.000000 33.147579
RightShoulder 8.129464 -22.674351 -46.906290
RightArm 78.287056 29.421728 36.750771
RightForeArm -10.608148 -0.000000 24.137307
RightHand 4.743582 -0.000000 4.767885
RightHandThumb1 -24.326973 -0.000000 -32.862282
LeftUpLeg 124.693779 -10.902219 -8.994232
LeftLeg 107.091121 -0.000000 -0.000000
LeftFoot -33.609192 9.208342 -6.681730
LeftToeBase 3.485744 -0.000000 -0.000000
RightUpLeg 127.614624 15.797354 10.056239
RightLeg 108.881356 -0.000000 -0.000000
RightFoot -40.866281 -1.167021 4.227390
RightToeBase 6.391509 -0.000000 -0.000000
